# xmcd
#
# Track frame offsets: 
#        150
#        20550
#        37787
#        61300
#        77137
#        97387
#        118487
#        137375
#        161625
#        177362
#        194025
#        216300
#        237500
#        259712
#        277562
#
# Disc length: 3972 seconds
#
# Revision: 4
# Processed by: cddbd v1.5.2PL0 Copyright (c) Steve Scherf et al.
# Submitted via: ExactAudioCopy v1.0b1
#
DISCID=da0f820f
DTITLE=張信哲 - 張信哲精選: Greatest Hits CD1
DYEAR=2000
DGENRE=Pop
TTITLE0=愛如潮水
TTITLE1=有一點動心
TTITLE2=我是真的愛妳
TTITLE3=讓我忘記你的臉
TTITLE4=相信相依
TTITLE5=要妳親口對我說
TTITLE6=不會讓你後悔
TTITLE7=我最愛的女人
TTITLE8=妳是最美麗會微笑的臉
TTITLE9=風言風語
TTITLE10=想妳是一種鼓勵
TTITLE11=今夜夢裡有霧
TTITLE12=臨別一眼
TTITLE13=我在這裡守候
TTITLE14=握握手好嗎
EXTD=YEAR: 2000 ID3G:   0
EXTT0=
EXTT1=
EXTT2=
EXTT3=
EXTT4=
EXTT5=
EXTT6=
EXTT7=
EXTT8=
EXTT9=
EXTT10=
EXTT11=
EXTT12=
EXTT13=
EXTT14=
PLAYORDER=
